<svg xmlns="http://www.w3.org/2000/svg" width="1120" height="720" viewBox="0 0 1120 720">
<rect width="100%" height="100%" fill="white"/>
<text x="560.00" y="55.00" font-family="Arial, Helvetica, sans-serif" font-size="28" font-weight="700" fill="#20242C" text-anchor="middle">Average of individuals Over Combined</text>
<line x1="92" y1="616.00" x2="1072" y2="616.00" stroke="#D9DEE7" stroke-width="1"/>
<text x="80.00" y="621.00" font-family="Arial, Helvetica, sans-serif" font-size="13" font-weight="normal" fill="#333844" text-anchor="end">0</text>
<line x1="92" y1="511.20" x2="1072" y2="511.20" stroke="#D9DEE7" stroke-width="1"/>
<text x="80.00" y="516.20" font-family="Arial, Helvetica, sans-serif" font-size="13" font-weight="normal" fill="#333844" text-anchor="end">10</text>
<line x1="92" y1="406.40" x2="1072" y2="406.40" stroke="#D9DEE7" stroke-width="1"/>
<text x="80.00" y="411.40" font-family="Arial, Helvetica, sans-serif" font-size="13" font-weight="normal" fill="#333844" text-anchor="end">20</text>
<line x1="92" y1="301.60" x2="1072" y2="301.60" stroke="#D9DEE7" stroke-width="1"/>
<text x="80.00" y="306.60" font-family="Arial, Helvetica, sans-serif" font-size="13" font-weight="normal" fill="#333844" text-anchor="end">29</text>
<line x1="92" y1="196.80" x2="1072" y2="196.80" stroke="#D9DEE7" stroke-width="1"/>
<text x="80.00" y="201.80" font-family="Arial, Helvetica, sans-serif" font-size="13" font-weight="normal" fill="#333844" text-anchor="end">39</text>
<line x1="92" y1="92.00" x2="1072" y2="92.00" stroke="#D9DEE7" stroke-width="1"/>
<text x="80.00" y="97.00" font-family="Arial, Helvetica, sans-serif" font-size="13" font-weight="normal" fill="#333844" text-anchor="end">49</text>
<line x1="92" y1="92" x2="92" y2="616" stroke="#333844" stroke-width="2"/>
<line x1="92" y1="616" x2="1072" y2="616" stroke="#333844" stroke-width="2"/>
<rect x="92.00" y="605.31" width="65.33" height="10.69" fill="#4C78A8" stroke="white" stroke-width="1"/>
<rect x="157.33" y="444.90" width="65.33" height="171.10" fill="#4C78A8" stroke="white" stroke-width="1"/>
<rect x="222.67" y="220.33" width="65.33" height="395.67" fill="#4C78A8" stroke="white" stroke-width="1"/>
<rect x="288.00" y="92.00" width="65.33" height="524.00" fill="#4C78A8" stroke="white" stroke-width="1"/>
<rect x="353.33" y="231.02" width="65.33" height="384.98" fill="#4C78A8" stroke="white" stroke-width="1"/>
<rect x="418.67" y="305.88" width="65.33" height="310.12" fill="#4C78A8" stroke="white" stroke-width="1"/>
<rect x="484.00" y="380.73" width="65.33" height="235.27" fill="#4C78A8" stroke="white" stroke-width="1"/>
<rect x="549.33" y="616.00" width="65.33" height="0.00" fill="#4C78A8" stroke="white" stroke-width="1"/>
<rect x="614.67" y="551.84" width="65.33" height="64.16" fill="#4C78A8" stroke="white" stroke-width="1"/>
<rect x="680.00" y="616.00" width="65.33" height="0.00" fill="#4C78A8" stroke="white" stroke-width="1"/>
<rect x="745.33" y="616.00" width="65.33" height="0.00" fill="#4C78A8" stroke="white" stroke-width="1"/>
<rect x="810.67" y="616.00" width="65.33" height="0.00" fill="#4C78A8" stroke="white" stroke-width="1"/>
<rect x="876.00" y="616.00" width="65.33" height="0.00" fill="#4C78A8" stroke="white" stroke-width="1"/>
<rect x="941.33" y="605.31" width="65.33" height="10.69" fill="#4C78A8" stroke="white" stroke-width="1"/>
<rect x="1006.67" y="583.92" width="65.33" height="32.08" fill="#4C78A8" stroke="white" stroke-width="1"/>
<line x1="92.00" y1="616" x2="92.00" y2="622" stroke="#333844"/>
<text x="92.00" y="643.00" font-family="Arial, Helvetica, sans-serif" font-size="13" font-weight="normal" fill="#333844" text-anchor="middle">-10</text>
<line x1="157.33" y1="616" x2="157.33" y2="622" stroke="#333844"/>
<text x="157.33" y="643.00" font-family="Arial, Helvetica, sans-serif" font-size="13" font-weight="normal" fill="#333844" text-anchor="middle">-5</text>
<line x1="222.67" y1="616" x2="222.67" y2="622" stroke="#333844"/>
<text x="222.67" y="643.00" font-family="Arial, Helvetica, sans-serif" font-size="13" font-weight="normal" fill="#333844" text-anchor="middle">0</text>
<line x1="288.00" y1="616" x2="288.00" y2="622" stroke="#333844"/>
<text x="288.00" y="643.00" font-family="Arial, Helvetica, sans-serif" font-size="13" font-weight="normal" fill="#333844" text-anchor="middle">5</text>
<line x1="353.33" y1="616" x2="353.33" y2="622" stroke="#333844"/>
<text x="353.33" y="643.00" font-family="Arial, Helvetica, sans-serif" font-size="13" font-weight="normal" fill="#333844" text-anchor="middle">10</text>
<line x1="418.67" y1="616" x2="418.67" y2="622" stroke="#333844"/>
<text x="418.67" y="643.00" font-family="Arial, Helvetica, sans-serif" font-size="13" font-weight="normal" fill="#333844" text-anchor="middle">15</text>
<line x1="484.00" y1="616" x2="484.00" y2="622" stroke="#333844"/>
<text x="484.00" y="643.00" font-family="Arial, Helvetica, sans-serif" font-size="13" font-weight="normal" fill="#333844" text-anchor="middle">20</text>
<line x1="549.33" y1="616" x2="549.33" y2="622" stroke="#333844"/>
<text x="549.33" y="643.00" font-family="Arial, Helvetica, sans-serif" font-size="13" font-weight="normal" fill="#333844" text-anchor="middle">25</text>
<line x1="614.67" y1="616" x2="614.67" y2="622" stroke="#333844"/>
<text x="614.67" y="643.00" font-family="Arial, Helvetica, sans-serif" font-size="13" font-weight="normal" fill="#333844" text-anchor="middle">30</text>
<line x1="680.00" y1="616" x2="680.00" y2="622" stroke="#333844"/>
<text x="680.00" y="643.00" font-family="Arial, Helvetica, sans-serif" font-size="13" font-weight="normal" fill="#333844" text-anchor="middle">35</text>
<line x1="745.33" y1="616" x2="745.33" y2="622" stroke="#333844"/>
<text x="745.33" y="643.00" font-family="Arial, Helvetica, sans-serif" font-size="13" font-weight="normal" fill="#333844" text-anchor="middle">40</text>
<line x1="810.67" y1="616" x2="810.67" y2="622" stroke="#333844"/>
<text x="810.67" y="643.00" font-family="Arial, Helvetica, sans-serif" font-size="13" font-weight="normal" fill="#333844" text-anchor="middle">45</text>
<line x1="876.00" y1="616" x2="876.00" y2="622" stroke="#333844"/>
<text x="876.00" y="643.00" font-family="Arial, Helvetica, sans-serif" font-size="13" font-weight="normal" fill="#333844" text-anchor="middle">50</text>
<line x1="941.33" y1="616" x2="941.33" y2="622" stroke="#333844"/>
<text x="941.33" y="643.00" font-family="Arial, Helvetica, sans-serif" font-size="13" font-weight="normal" fill="#333844" text-anchor="middle">55</text>
<line x1="1006.67" y1="616" x2="1006.67" y2="622" stroke="#333844"/>
<text x="1006.67" y="643.00" font-family="Arial, Helvetica, sans-serif" font-size="13" font-weight="normal" fill="#333844" text-anchor="middle">60</text>
<line x1="1072.00" y1="616" x2="1072.00" y2="622" stroke="#333844"/>
<text x="1072.00" y="643.00" font-family="Arial, Helvetica, sans-serif" font-size="13" font-weight="normal" fill="#333844" text-anchor="middle">65</text>
<line x1="355.38" y1="92" x2="355.38" y2="616" stroke="#C43C39" stroke-width="4"/>
<line x1="213.49" y1="92" x2="213.49" y2="616" stroke="#5B8E3E" stroke-width="3" stroke-dasharray="11 8"/>
<line x1="497.26" y1="92" x2="497.26" y2="616" stroke="#5B8E3E" stroke-width="3" stroke-dasharray="11 8"/>
<rect x="313.38" y="100.00" width="84" height="28" rx="5" fill="white" stroke="#AAB3C2"/>
<text x="355.38" y="120.00" font-family="Arial, Helvetica, sans-serif" font-size="12" font-weight="normal" fill="#C43C39" text-anchor="middle">Avg: 10.16</text>
<rect x="213.49" y="154.00" width="94" height="44" rx="5" fill="white" stroke="#AAB3C2"/>
<text x="260.49" y="172.00" font-family="Arial, Helvetica, sans-serif" font-size="12" font-weight="normal" fill="#5B8E3E" text-anchor="middle">-1 Std Dev</text>
<text x="260.49" y="190.00" font-family="Arial, Helvetica, sans-serif" font-size="12" font-weight="normal" fill="#5B8E3E" text-anchor="middle">-0.70</text>
<rect x="497.26" y="154.00" width="94" height="44" rx="5" fill="white" stroke="#AAB3C2"/>
<text x="544.26" y="172.00" font-family="Arial, Helvetica, sans-serif" font-size="12" font-weight="normal" fill="#5B8E3E" text-anchor="middle">+1 Std Dev</text>
<text x="544.26" y="190.00" font-family="Arial, Helvetica, sans-serif" font-size="12" font-weight="normal" fill="#5B8E3E" text-anchor="middle">21.01</text>
<rect x="886" y="102" width="178" height="118" rx="6" fill="white" stroke="#AAB3C2"/>
<text x="898.00" y="128.00" font-family="Arial, Helvetica, sans-serif" font-size="14" font-weight="normal" fill="#20242C" text-anchor="start">n = 200</text>
<text x="898.00" y="149.00" font-family="Arial, Helvetica, sans-serif" font-size="14" font-weight="normal" fill="#20242C" text-anchor="start">Average = 10.16</text>
<text x="898.00" y="170.00" font-family="Arial, Helvetica, sans-serif" font-size="14" font-weight="normal" fill="#20242C" text-anchor="start">Std Dev = 10.86</text>
<text x="898.00" y="191.00" font-family="Arial, Helvetica, sans-serif" font-size="14" font-weight="normal" fill="#20242C" text-anchor="start">Min = -6.25</text>
<text x="898.00" y="212.00" font-family="Arial, Helvetica, sans-serif" font-size="14" font-weight="normal" fill="#20242C" text-anchor="start">Max = 62.50</text>
<text x="582.00" y="678.00" font-family="Arial, Helvetica, sans-serif" font-size="17" font-weight="normal" fill="#20242C" text-anchor="middle">Combined - Avg(Ind1-4)</text>
<text x="38" y="354.0" font-family="Arial, Helvetica, sans-serif" font-size="17" fill="#20242C" text-anchor="middle" transform="rotate(-90 38 354.0)">Frequency</text>
</svg>