<svg xmlns="http://www.w3.org/2000/svg" width="1120" height="720" viewBox="0 0 1120 720">
<rect width="100%" height="100%" fill="white"/>
<text x="560.00" y="55.00" font-family="Arial, Helvetica, sans-serif" font-size="28" font-weight="700" fill="#20242C" text-anchor="middle">Maximum of Individuals Over Combined</text>
<line x1="92" y1="616.00" x2="1072" y2="616.00" stroke="#D9DEE7" stroke-width="1"/>
<text x="80.00" y="621.00" font-family="Arial, Helvetica, sans-serif" font-size="13" font-weight="normal" fill="#333844" text-anchor="end">0</text>
<line x1="92" y1="511.20" x2="1072" y2="511.20" stroke="#D9DEE7" stroke-width="1"/>
<text x="80.00" y="516.20" font-family="Arial, Helvetica, sans-serif" font-size="13" font-weight="normal" fill="#333844" text-anchor="end">16</text>
<line x1="92" y1="406.40" x2="1072" y2="406.40" stroke="#D9DEE7" stroke-width="1"/>
<text x="80.00" y="411.40" font-family="Arial, Helvetica, sans-serif" font-size="13" font-weight="normal" fill="#333844" text-anchor="end">31</text>
<line x1="92" y1="301.60" x2="1072" y2="301.60" stroke="#D9DEE7" stroke-width="1"/>
<text x="80.00" y="306.60" font-family="Arial, Helvetica, sans-serif" font-size="13" font-weight="normal" fill="#333844" text-anchor="end">47</text>
<line x1="92" y1="196.80" x2="1072" y2="196.80" stroke="#D9DEE7" stroke-width="1"/>
<text x="80.00" y="201.80" font-family="Arial, Helvetica, sans-serif" font-size="13" font-weight="normal" fill="#333844" text-anchor="end">62</text>
<line x1="92" y1="92.00" x2="1072" y2="92.00" stroke="#D9DEE7" stroke-width="1"/>
<text x="80.00" y="97.00" font-family="Arial, Helvetica, sans-serif" font-size="13" font-weight="normal" fill="#333844" text-anchor="end">78</text>
<line x1="92" y1="92" x2="92" y2="616" stroke="#333844" stroke-width="2"/>
<line x1="92" y1="616" x2="1072" y2="616" stroke="#333844" stroke-width="2"/>
<rect x="92.00" y="515.23" width="75.38" height="100.77" fill="#4C78A8" stroke="white" stroke-width="1"/>
<rect x="167.38" y="589.13" width="75.38" height="26.87" fill="#4C78A8" stroke="white" stroke-width="1"/>
<rect x="242.77" y="92.00" width="75.38" height="524.00" fill="#4C78A8" stroke="white" stroke-width="1"/>
<rect x="318.15" y="575.69" width="75.38" height="40.31" fill="#4C78A8" stroke="white" stroke-width="1"/>
<rect x="393.54" y="192.77" width="75.38" height="423.23" fill="#4C78A8" stroke="white" stroke-width="1"/>
<rect x="468.92" y="602.56" width="75.38" height="13.44" fill="#4C78A8" stroke="white" stroke-width="1"/>
<rect x="544.31" y="468.21" width="75.38" height="147.79" fill="#4C78A8" stroke="white" stroke-width="1"/>
<rect x="619.69" y="582.41" width="75.38" height="33.59" fill="#4C78A8" stroke="white" stroke-width="1"/>
<rect x="695.08" y="609.28" width="75.38" height="6.72" fill="#4C78A8" stroke="white" stroke-width="1"/>
<rect x="770.46" y="616.00" width="75.38" height="0.00" fill="#4C78A8" stroke="white" stroke-width="1"/>
<rect x="845.85" y="616.00" width="75.38" height="0.00" fill="#4C78A8" stroke="white" stroke-width="1"/>
<rect x="921.23" y="616.00" width="75.38" height="0.00" fill="#4C78A8" stroke="white" stroke-width="1"/>
<rect x="996.62" y="589.13" width="75.38" height="26.87" fill="#4C78A8" stroke="white" stroke-width="1"/>
<line x1="92.00" y1="616" x2="92.00" y2="622" stroke="#333844"/>
<text x="92.00" y="643.00" font-family="Arial, Helvetica, sans-serif" font-size="13" font-weight="normal" fill="#333844" text-anchor="middle">-10</text>
<line x1="167.38" y1="616" x2="167.38" y2="622" stroke="#333844"/>
<text x="167.38" y="643.00" font-family="Arial, Helvetica, sans-serif" font-size="13" font-weight="normal" fill="#333844" text-anchor="middle">-5</text>
<line x1="242.77" y1="616" x2="242.77" y2="622" stroke="#333844"/>
<text x="242.77" y="643.00" font-family="Arial, Helvetica, sans-serif" font-size="13" font-weight="normal" fill="#333844" text-anchor="middle">0</text>
<line x1="318.15" y1="616" x2="318.15" y2="622" stroke="#333844"/>
<text x="318.15" y="643.00" font-family="Arial, Helvetica, sans-serif" font-size="13" font-weight="normal" fill="#333844" text-anchor="middle">5</text>
<line x1="393.54" y1="616" x2="393.54" y2="622" stroke="#333844"/>
<text x="393.54" y="643.00" font-family="Arial, Helvetica, sans-serif" font-size="13" font-weight="normal" fill="#333844" text-anchor="middle">10</text>
<line x1="468.92" y1="616" x2="468.92" y2="622" stroke="#333844"/>
<text x="468.92" y="643.00" font-family="Arial, Helvetica, sans-serif" font-size="13" font-weight="normal" fill="#333844" text-anchor="middle">15</text>
<line x1="544.31" y1="616" x2="544.31" y2="622" stroke="#333844"/>
<text x="544.31" y="643.00" font-family="Arial, Helvetica, sans-serif" font-size="13" font-weight="normal" fill="#333844" text-anchor="middle">20</text>
<line x1="619.69" y1="616" x2="619.69" y2="622" stroke="#333844"/>
<text x="619.69" y="643.00" font-family="Arial, Helvetica, sans-serif" font-size="13" font-weight="normal" fill="#333844" text-anchor="middle">25</text>
<line x1="695.08" y1="616" x2="695.08" y2="622" stroke="#333844"/>
<text x="695.08" y="643.00" font-family="Arial, Helvetica, sans-serif" font-size="13" font-weight="normal" fill="#333844" text-anchor="middle">30</text>
<line x1="770.46" y1="616" x2="770.46" y2="622" stroke="#333844"/>
<text x="770.46" y="643.00" font-family="Arial, Helvetica, sans-serif" font-size="13" font-weight="normal" fill="#333844" text-anchor="middle">35</text>
<line x1="845.85" y1="616" x2="845.85" y2="622" stroke="#333844"/>
<text x="845.85" y="643.00" font-family="Arial, Helvetica, sans-serif" font-size="13" font-weight="normal" fill="#333844" text-anchor="middle">40</text>
<line x1="921.23" y1="616" x2="921.23" y2="622" stroke="#333844"/>
<text x="921.23" y="643.00" font-family="Arial, Helvetica, sans-serif" font-size="13" font-weight="normal" fill="#333844" text-anchor="middle">45</text>
<line x1="996.62" y1="616" x2="996.62" y2="622" stroke="#333844"/>
<text x="996.62" y="643.00" font-family="Arial, Helvetica, sans-serif" font-size="13" font-weight="normal" fill="#333844" text-anchor="middle">50</text>
<line x1="1072.00" y1="616" x2="1072.00" y2="622" stroke="#333844"/>
<text x="1072.00" y="643.00" font-family="Arial, Helvetica, sans-serif" font-size="13" font-weight="normal" fill="#333844" text-anchor="middle">55</text>
<line x1="343.41" y1="92" x2="343.41" y2="616" stroke="#C43C39" stroke-width="4"/>
<line x1="176.07" y1="92" x2="176.07" y2="616" stroke="#5B8E3E" stroke-width="3" stroke-dasharray="11 8"/>
<line x1="510.74" y1="92" x2="510.74" y2="616" stroke="#5B8E3E" stroke-width="3" stroke-dasharray="11 8"/>
<rect x="301.41" y="100.00" width="84" height="28" rx="5" fill="white" stroke="#AAB3C2"/>
<text x="343.41" y="120.00" font-family="Arial, Helvetica, sans-serif" font-size="12" font-weight="normal" fill="#C43C39" text-anchor="middle">Avg: 6.67</text>
<rect x="176.07" y="154.00" width="94" height="44" rx="5" fill="white" stroke="#AAB3C2"/>
<text x="223.07" y="172.00" font-family="Arial, Helvetica, sans-serif" font-size="12" font-weight="normal" fill="#5B8E3E" text-anchor="middle">-1 Std Dev</text>
<text x="223.07" y="190.00" font-family="Arial, Helvetica, sans-serif" font-size="12" font-weight="normal" fill="#5B8E3E" text-anchor="middle">-4.42</text>
<rect x="510.74" y="154.00" width="94" height="44" rx="5" fill="white" stroke="#AAB3C2"/>
<text x="557.74" y="172.00" font-family="Arial, Helvetica, sans-serif" font-size="12" font-weight="normal" fill="#5B8E3E" text-anchor="middle">+1 Std Dev</text>
<text x="557.74" y="190.00" font-family="Arial, Helvetica, sans-serif" font-size="12" font-weight="normal" fill="#5B8E3E" text-anchor="middle">17.77</text>
<rect x="886" y="102" width="178" height="118" rx="6" fill="white" stroke="#AAB3C2"/>
<text x="898.00" y="128.00" font-family="Arial, Helvetica, sans-serif" font-size="14" font-weight="normal" fill="#20242C" text-anchor="start">n = 200</text>
<text x="898.00" y="149.00" font-family="Arial, Helvetica, sans-serif" font-size="14" font-weight="normal" fill="#20242C" text-anchor="start">Average = 6.67</text>
<text x="898.00" y="170.00" font-family="Arial, Helvetica, sans-serif" font-size="14" font-weight="normal" fill="#20242C" text-anchor="start">Std Dev = 11.10</text>
<text x="898.00" y="191.00" font-family="Arial, Helvetica, sans-serif" font-size="14" font-weight="normal" fill="#20242C" text-anchor="start">Min = -10.00</text>
<text x="898.00" y="212.00" font-family="Arial, Helvetica, sans-serif" font-size="14" font-weight="normal" fill="#20242C" text-anchor="start">Max = 55.00</text>
<text x="582.00" y="678.00" font-family="Arial, Helvetica, sans-serif" font-size="17" font-weight="normal" fill="#20242C" text-anchor="middle">Combined - Max(Ind1-4)</text>
<text x="38" y="354.0" font-family="Arial, Helvetica, sans-serif" font-size="17" fill="#20242C" text-anchor="middle" transform="rotate(-90 38 354.0)">Frequency</text>
</svg>